<svg width="33" height="33" viewBox="0 0 33 33" fill="none" xmlns="http://www.w3.org/2000/svg">
<path d="M9.83488 25.9385L5.80949 29.3223C5.66373 29.4449 5.486 29.5233 5.29721 29.5482C5.10843 29.5732 4.91643 29.5438 4.74381 29.4634C4.57118 29.383 4.4251 29.255 4.32275 29.0944C4.22039 28.9338 4.16602 28.7473 4.16602 28.5569V8.70392C4.16602 8.4387 4.27137 8.18435 4.45891 7.99681C4.64645 7.80928 4.9008 7.70392 5.16602 7.70392H27.166C27.4312 7.70392 27.6856 7.80928 27.8731 7.99681C28.0607 8.18435 28.166 8.4387 28.166 8.70392V24.7039C28.166 24.9691 28.0607 25.2235 27.8731 25.411C27.6856 25.5986 27.4312 25.7039 27.166 25.7039H10.4784C10.2429 25.7039 10.0151 25.787 9.83488 25.9385Z" stroke="#27272A" stroke-width="2" stroke-linecap="round" stroke-linejoin="round"/>
<path d="M16.166 18.2039C16.9944 18.2039 17.666 17.5323 17.666 16.7039C17.666 15.8754 16.9944 15.2039 16.166 15.2039C15.3376 15.2039 14.666 15.8754 14.666 16.7039C14.666 17.5323 15.3376 18.2039 16.166 18.2039Z" fill="#27272A"/>
<path d="M10.166 18.2039C10.9944 18.2039 11.666 17.5323 11.666 16.7039C11.666 15.8754 10.9944 15.2039 10.166 15.2039C9.33759 15.2039 8.66602 15.8754 8.66602 16.7039C8.66602 17.5323 9.33759 18.2039 10.166 18.2039Z" fill="#27272A"/>
<path d="M22.166 18.2039C22.9944 18.2039 23.666 17.5323 23.666 16.7039C23.666 15.8754 22.9944 15.2039 22.166 15.2039C21.3376 15.2039 20.666 15.8754 20.666 16.7039C20.666 17.5323 21.3376 18.2039 22.166 18.2039Z" fill="#27272A"/>
</svg>
