<svg width="32" height="33" viewBox="0 0 32 33" fill="none" xmlns="http://www.w3.org/2000/svg">
<path d="M28.8665 12.983C28.5074 12.7608 28.0478 12.7836 27.7115 13.0411L22.0048 17.4103L16.8141 10.5191C16.6245 10.2681 16.33 10.1183 16.0155 10.1135C15.7073 10.1088 15.402 10.2494 15.2049 10.495L9.66365 17.406L4.31096 13.0591C3.97871 12.7891 3.51302 12.7555 3.14546 12.9752C2.77827 13.195 2.58733 13.621 2.66752 14.0415L4.43396 23.2814C4.52602 23.7621 4.94621 24.1093 5.43508 24.1093H26.5646C27.0538 24.1093 27.474 23.7621 27.5653 23.2814L29.3318 14.0415C29.4113 13.6264 29.2262 13.2052 28.8665 12.983ZM25.7222 22.0711H6.27796L5.19396 16.4021L9.17496 19.6351C9.38558 19.8059 9.65596 19.8844 9.92571 19.8573C10.1955 19.8284 10.4427 19.6932 10.6126 19.4816L15.9748 12.7931L20.9953 19.4571C21.1586 19.6741 21.4019 19.8171 21.6713 19.8538C21.9416 19.8912 22.2128 19.8181 22.4288 19.6531L26.8286 16.2843L25.7222 22.0711Z" fill="#F97316"/>
<path d="M25.5455 23.0902V25.7059H6.45427V23.0902H4.41602V26.725C4.41602 27.2879 4.8722 27.7441 5.43514 27.7441H26.5646C27.1275 27.7441 27.5838 27.288 27.5838 26.725V23.0902H25.5455Z" fill="#F97316"/>
<path d="M15.9995 5.25586C14.1264 5.25586 12.6025 6.7798 12.6025 8.65286C12.6025 10.526 14.1265 12.0499 15.9995 12.0499C17.8727 12.0499 19.3966 10.5259 19.3966 8.65286C19.3966 6.7798 17.8727 5.25586 15.9995 5.25586ZM15.9995 10.0117C15.2502 10.0117 14.6407 9.4023 14.6407 8.65292C14.6407 7.90355 15.2502 7.29411 15.9995 7.29411C16.7489 7.29411 17.3584 7.90355 17.3584 8.65292C17.3584 9.4023 16.7489 10.0117 15.9995 10.0117Z" fill="#F97316"/>
<path d="M28.6021 7.93945C26.729 7.93945 25.2051 9.46333 25.2051 11.3365C25.2051 13.2096 26.729 14.7335 28.6021 14.7335C30.4752 14.7335 31.9991 13.2095 31.9991 11.3365C31.9991 9.46333 30.4752 7.93945 28.6021 7.93945ZM28.6021 12.6953C27.8527 12.6953 27.2433 12.0858 27.2433 11.3365C27.2433 10.5871 27.8527 9.97764 28.6021 9.97764C29.3515 9.97764 29.9609 10.5871 29.9609 11.3365C29.9609 12.0858 29.3515 12.6953 28.6021 12.6953Z" fill="#F97316"/>
<path d="M3.397 7.93945C1.52394 7.93945 0 9.46333 0 11.3365C0 13.2096 1.52394 14.7335 3.397 14.7335C5.27012 14.7335 6.794 13.2095 6.794 11.3365C6.79406 9.46333 5.27012 7.93945 3.397 7.93945ZM3.397 12.6953C2.64762 12.6953 2.03819 12.0858 2.03819 11.3365C2.03819 10.5871 2.64762 9.97764 3.397 9.97764C4.14638 9.97764 4.75581 10.5871 4.75581 11.3365C4.75581 12.0858 4.14644 12.6953 3.397 12.6953Z" fill="#F97316"/>
</svg>
