<svg width="74" height="81" viewBox="0 0 74 81" fill="none" xmlns="http://www.w3.org/2000/svg">
<path d="M30.7055 1.664C34.4722 -0.554664 39.1462 -0.554666 42.9129 1.66399L67.4477 16.1153C71.0855 18.258 73.3334 22.1514 73.3701 26.3733L73.618 54.8466C73.656 59.2181 71.319 63.2659 67.5142 65.4186L42.7316 79.4407C39.0571 81.5198 34.5614 81.5198 30.8868 79.4407L6.1042 65.4186C2.29942 63.2659 -0.0375907 59.2181 0.000457616 54.8466L0.248286 26.3733C0.285033 22.1514 2.53288 18.258 6.17072 16.1153L30.7055 1.664Z" fill="#F97316"/>
<path fill-rule="evenodd" clip-rule="evenodd" d="M66.9594 16.9443L42.4246 2.49301C38.9593 0.451838 34.6592 0.45184 31.1938 2.49301L6.65902 16.9443C3.31221 18.9156 1.24419 22.4976 1.21038 26.3816L0.962552 54.855C0.927548 58.8767 3.07759 62.6007 6.57799 64.5812L31.3606 78.6033C34.7412 80.5161 38.8772 80.5161 42.2579 78.6033L67.0404 64.5812C70.5408 62.6007 72.6909 58.8767 72.6559 54.855L72.408 26.3816C72.3742 22.4976 70.3062 18.9156 66.9594 16.9443ZM42.9129 1.66399C39.1462 -0.554666 34.4722 -0.554664 30.7055 1.664L6.17072 16.1153C2.53288 18.258 0.285033 22.1514 0.248286 26.3733L0.000457609 54.8466C-0.0375904 59.2181 2.29942 63.2659 6.1042 65.4186L30.8868 79.4407C34.5614 81.5198 39.0571 81.5198 42.7316 79.4407L67.5142 65.4186C71.319 63.2659 73.656 59.2181 73.618 54.8466L73.3701 26.3733C73.3334 22.1514 71.0855 18.258 67.4477 16.1153L42.9129 1.66399Z" fill="black"/>
<path d="M30.7051 9.84173C34.4718 7.62307 39.1458 7.62307 42.9125 9.84173L60.4356 20.1631C64.0735 22.3058 66.3213 26.1992 66.3581 30.4211L66.5351 50.7572C66.5731 55.1286 64.2361 59.1764 60.4314 61.3292L42.7312 71.344C39.0566 73.4231 34.5609 73.4231 30.8864 71.344L13.1862 61.3292C9.38144 59.1764 7.04444 55.1286 7.08249 50.7572L7.25949 30.4211C7.29624 26.1992 9.54409 22.3058 13.1819 20.1631L30.7051 9.84173Z" fill="#FAFAFA"/>
<path fill-rule="evenodd" clip-rule="evenodd" d="M59.9473 20.9921L42.4242 10.6707C38.9588 8.62957 34.6587 8.62957 31.1934 10.6707L13.6702 20.9921C10.3234 22.9634 8.25539 26.5453 8.22158 30.4294L8.04458 50.7656C8.00958 54.7873 10.1596 58.5113 13.66 60.4918L31.3601 70.5066C34.7408 72.4194 38.8768 72.4194 42.2574 70.5066L59.9576 60.4918C63.458 58.5113 65.608 54.7873 65.573 50.7656L65.396 30.4294C65.3622 26.5453 63.2942 22.9634 59.9473 20.9921ZM42.9125 9.84173C39.1458 7.62307 34.4718 7.62307 30.7051 9.84173L13.1819 20.1631C9.54409 22.3058 7.29624 26.1992 7.25949 30.4211L7.08249 50.7572C7.04444 55.1286 9.38144 59.1764 13.1862 61.3292L30.8864 71.344C34.5609 73.4231 39.0566 73.4231 42.7312 71.344L60.4314 61.3292C64.2361 59.1764 66.5731 55.1286 66.5351 50.7572L66.3581 30.4211C66.3213 26.1992 64.0735 22.3058 60.4356 20.1631L42.9125 9.84173Z" fill="black"/>
<path d="M22.4247 29.8033C22.7097 28.9106 23.9728 28.9106 24.2578 29.8033L26.2056 35.9033C26.333 36.3021 26.7036 36.5728 27.1222 36.5728L33.4607 36.5728C34.3887 36.5728 34.7789 37.7569 34.0326 38.3086L28.8761 42.1208C28.5447 42.3658 28.4061 42.7946 28.5315 43.1871L30.4943 49.334C30.7783 50.2234 29.7565 50.9554 29.0058 50.4004L23.9132 46.6355C23.5733 46.3842 23.1092 46.3842 22.7693 46.6355L17.6767 50.4004C16.9259 50.9554 15.9042 50.2234 16.1882 49.334L18.151 43.1871C18.2764 42.7946 18.1378 42.3658 17.8064 42.1208L12.6498 38.3086C11.9036 37.7569 12.2938 36.5728 13.2218 36.5728L19.5603 36.5728C19.9789 36.5728 20.3495 36.3021 20.4768 35.9033L22.4247 29.8033Z" fill="#F97316"/>
<path fill-rule="evenodd" clip-rule="evenodd" d="M25.2891 36.196L23.3412 30.0959L21.3934 36.196C21.1387 36.9936 20.3976 37.5349 19.5603 37.5349H13.2218L18.3784 41.3471C19.0411 41.8371 19.3182 42.6947 19.0675 43.4798L17.1047 49.6267L22.1973 45.8618C22.8771 45.3592 23.8054 45.3592 24.4852 45.8618L29.5778 49.6267L27.6149 43.4798C27.3642 42.6947 27.6414 41.8371 28.3041 41.3471L33.4607 37.5349L27.1222 37.5349C26.2849 37.5349 25.5438 36.9936 25.2891 36.196ZM24.2578 29.8033C23.9728 28.9106 22.7097 28.9106 22.4247 29.8033L20.4768 35.9033C20.3495 36.3021 19.9789 36.5728 19.5603 36.5728L13.2218 36.5728C12.2938 36.5728 11.9036 37.7569 12.6498 38.3086L17.8064 42.1208C18.1378 42.3658 18.2764 42.7946 18.151 43.1871L16.1882 49.334C15.9042 50.2234 16.9259 50.9554 17.6767 50.4004L22.7693 46.6355C23.1092 46.3842 23.5733 46.3842 23.9132 46.6355L29.0058 50.4004C29.7565 50.9554 30.7783 50.2234 30.4943 49.334L28.5315 43.1871C28.4061 42.7946 28.5447 42.3658 28.8761 42.1208L34.0326 38.3086C34.7789 37.7569 34.3887 36.5728 33.4607 36.5728L27.1222 36.5728C26.7036 36.5728 26.333 36.3021 26.2056 35.9033L24.2578 29.8033Z" fill="black"/>
<path d="M49.8427 29.8033C50.1277 28.9106 51.3907 28.9106 51.6757 29.8033L53.6236 35.9033C53.7509 36.3021 54.1215 36.5728 54.5401 36.5728L60.8787 36.5728C61.8066 36.5728 62.1968 37.7569 61.4506 38.3086L56.294 42.1208C55.9627 42.3658 55.8241 42.7946 55.9495 43.1871L57.9123 49.334C58.1963 50.2234 57.1745 50.9554 56.4238 50.4004L51.3312 46.6355C50.9913 46.3842 50.5272 46.3842 50.1873 46.6355L45.0947 50.4004C44.3439 50.9554 43.3222 50.2234 43.6062 49.334L45.569 43.1871C45.6943 42.7946 45.5558 42.3658 45.2244 42.1208L40.0678 38.3086C39.3216 37.7569 39.7118 36.5728 40.6398 36.5728L46.9783 36.5728C47.3969 36.5728 47.7675 36.3021 47.8948 35.9033L49.8427 29.8033Z" fill="#F97316"/>
<path fill-rule="evenodd" clip-rule="evenodd" d="M52.7071 36.196L50.7592 30.0959L48.8114 36.196C48.5567 36.9936 47.8155 37.5349 46.9783 37.5349H40.6398L45.7964 41.3471C46.4591 41.8371 46.7362 42.6947 46.4855 43.4798L44.5227 49.6267L49.6153 45.8618C50.2951 45.3592 51.2233 45.3592 51.9031 45.8618L56.9957 49.6267L55.0329 43.4798C54.7822 42.6947 55.0593 41.8371 55.7221 41.3471L60.8787 37.5349L54.5401 37.5349C53.7029 37.5349 52.9617 36.9936 52.7071 36.196ZM51.6757 29.8033C51.3907 28.9106 50.1277 28.9106 49.8427 29.8033L47.8948 35.9033C47.7675 36.3021 47.3969 36.5728 46.9783 36.5728L40.6398 36.5728C39.7118 36.5728 39.3216 37.7569 40.0678 38.3086L45.2244 42.1208C45.5558 42.3658 45.6943 42.7946 45.569 43.1871L43.6062 49.334C43.3222 50.2234 44.3439 50.9554 45.0947 50.4004L50.1873 46.6355C50.5272 46.3842 50.9913 46.3842 51.3312 46.6355L56.4238 50.4004C57.1745 50.9554 58.1963 50.2234 57.9123 49.334L55.9495 43.1871C55.8241 42.7946 55.9627 42.3658 56.294 42.1208L61.4506 38.3086C62.1968 37.7569 61.8066 36.5728 60.8787 36.5728L54.5401 36.5728C54.1215 36.5728 53.7509 36.3021 53.6236 35.9033L51.6757 29.8033Z" fill="black"/>
</svg>
