<svg width="33" height="33" viewBox="0 0 33 33" fill="none" xmlns="http://www.w3.org/2000/svg">
<g clip-path="url(#clip0)">
<path d="M32.5 16.5C32.5 7.66344 25.3366 0.5 16.5 0.5C7.66344 0.5 0.5 7.66344 0.5 16.5C0.5 24.4859 6.35094 31.1053 14 32.3056V21.125H9.9375V16.5H14V12.975C14 8.965 16.3888 6.75 20.0434 6.75C21.7934 6.75 23.625 7.0625 23.625 7.0625V11H21.6075C19.62 11 19 12.2334 19 13.5V16.5H23.4375L22.7281 21.125H19V32.3056C26.6491 31.1053 32.5 24.4859 32.5 16.5Z" fill="#1877F2"/>
<path d="M22.7281 21.125L23.4375 16.5H19V13.5C19 12.2347 19.62 11 21.6075 11H23.625V7.0625C23.625 7.0625 21.7941 6.75 20.0434 6.75C16.3888 6.75 14 8.965 14 12.975V16.5H9.9375V21.125H14V32.3056C15.6566 32.5648 17.3434 32.5648 19 32.3056V21.125H22.7281Z" fill="white"/>
</g>
<defs>
<clipPath id="clip0">
<rect width="32" height="32" fill="white" transform="translate(0.5 0.5)"/>
</clipPath>
</defs>
</svg>
