<svg width="105" height="105" viewBox="0 0 105 105" fill="none" xmlns="http://www.w3.org/2000/svg">
<path d="M13.8418 85V26.5C13.8418 25.638 14.1842 24.8114 14.7937 24.2019C15.4032 23.5924 16.2298 23.25 17.0918 23.25H38.7585C39.4617 23.25 40.1459 23.4781 40.7085 23.9L51.9751 32.35C52.5377 32.7719 53.2219 33 53.9251 33H82.0918C82.9538 33 83.7804 33.3424 84.3899 33.9519C84.9994 34.5614 85.3418 35.388 85.3418 36.25V46" stroke="#D4D4D8" stroke-width="2" stroke-linecap="round" stroke-linejoin="round"/>
<path d="M13.8418 85L26.0246 54.543C26.2658 53.9399 26.6822 53.4229 27.2201 53.0588C27.758 52.6946 28.3926 52.5 29.0422 52.5H48.6078C49.2494 52.5 49.8767 52.3101 50.4106 51.9542L58.523 46.5458C59.0569 46.1899 59.6842 46 60.3258 46H93.8327C94.3476 46 94.8552 46.1224 95.3136 46.357C95.772 46.5917 96.1681 46.9319 96.4692 47.3497C96.7703 47.7675 96.9678 48.2508 97.0455 48.7599C97.1232 49.2689 97.0787 49.7892 96.9159 50.2777L85.3418 85H13.8418Z" stroke="#D4D4D8" stroke-width="2" stroke-linecap="round" stroke-linejoin="round"/>
</svg>
