<svg width="49" height="48" viewBox="0 0 49 48" fill="none" xmlns="http://www.w3.org/2000/svg">
<path d="M42.773 24H36.773C35.9773 24 35.2143 24.3161 34.6516 24.8787C34.089 25.4413 33.773 26.2044 33.773 27V34.5C33.773 35.2957 34.089 36.0587 34.6516 36.6213C35.2143 37.1839 35.9773 37.5 36.773 37.5H39.773C40.5686 37.5 41.3317 37.1839 41.8943 36.6213C42.4569 36.0587 42.773 35.2957 42.773 34.5V24ZM42.773 24C42.773 21.6247 42.3028 19.2729 41.3897 17.0802C40.4766 14.8875 39.1385 12.8971 37.4525 11.2239C35.7666 9.55073 33.7662 8.22776 31.5666 7.33127C29.367 6.43478 27.0117 5.98251 24.6365 6.00052C22.2613 5.98251 19.906 6.43478 17.7064 7.33127C15.5068 8.22776 13.5064 9.55073 11.8204 11.2239C10.1345 12.8971 8.79639 14.8875 7.88326 17.0802C6.97012 19.2729 6.5 21.6247 6.5 24V34.5C6.5 35.2957 6.81607 36.0587 7.37868 36.6213C7.94129 37.1839 8.70435 37.5 9.5 37.5H12.5C13.2956 37.5 14.0587 37.1839 14.6213 36.6213C15.1839 36.0587 15.5 35.2957 15.5 34.5V27C15.5 26.2044 15.1839 25.4413 14.6213 24.8787C14.0587 24.3161 13.2956 24 12.5 24H6.5" stroke="black" stroke-width="3" stroke-linecap="round" stroke-linejoin="round"/>
<path d="M42.7735 34.5V39C42.7735 40.5913 42.1413 42.1174 41.0161 43.2426C39.8909 44.3679 38.3648 45 36.7735 45H26.0005" stroke="black" stroke-width="3" stroke-linecap="round" stroke-linejoin="round"/>
</svg>
