<svg width="16" height="12" viewBox="0 0 16 12" fill="none" xmlns="http://www.w3.org/2000/svg">
<path d="M4.00002 6.75031C4.00086 6.8162 3.9885 6.8816 3.96367 6.94264C3.93884 7.00368 3.90204 7.05914 3.85544 7.10573C3.80885 7.15233 3.75339 7.18913 3.69235 7.21396C3.63131 7.23879 3.56591 7.25115 3.50002 7.25031H0.75002C0.657132 7.24956 0.566195 7.22357 0.486933 7.17513C0.407671 7.1267 0.343064 7.05763 0.30002 6.97531C0.259993 6.89149 0.243502 6.79836 0.252309 6.70588C0.261116 6.61341 0.29489 6.52507 0.35002 6.45031C0.792512 5.85633 1.38297 5.38871 2.06252 5.09406C1.77052 4.82676 1.54616 4.49394 1.40793 4.12299C1.26969 3.75204 1.22152 3.35356 1.26738 2.96036C1.31325 2.56715 1.45183 2.19046 1.67174 1.86128C1.89164 1.53211 2.18657 1.25986 2.53225 1.06694C2.87793 0.874025 3.26449 0.765959 3.6601 0.751637C4.05571 0.737315 4.44907 0.817146 4.8078 0.984561C5.16653 1.15197 5.48037 1.40219 5.7235 1.7146C5.96663 2.02701 6.13209 2.3927 6.20627 2.78156C6.22476 2.88284 6.21193 2.98735 6.1695 3.08115C6.12707 3.17495 6.05704 3.25358 5.96877 3.30656C5.16041 3.78591 4.54561 4.53339 4.23127 5.41906C4.07631 5.84571 3.99802 6.2964 4.00002 6.75031ZM15.65 6.45031C15.2075 5.85633 14.6171 5.38871 13.9375 5.09406C14.2295 4.82676 14.4539 4.49394 14.5921 4.12299C14.7304 3.75204 14.7785 3.35356 14.7327 2.96036C14.6868 2.56715 14.5482 2.19046 14.3283 1.86128C14.1084 1.53211 13.8135 1.25986 13.4678 1.06694C13.1221 0.874025 12.7355 0.765959 12.3399 0.751637C11.9443 0.737315 11.551 0.817146 11.1922 0.984561C10.8335 1.15197 10.5197 1.40219 10.2765 1.7146C10.0334 2.02701 9.86795 2.3927 9.79377 2.78156C9.77528 2.88284 9.78811 2.98735 9.83054 3.08115C9.87297 3.17495 9.943 3.25358 10.0313 3.30656C10.8407 3.78468 11.4558 4.5326 11.7688 5.41906C11.9237 5.84571 12.002 6.2964 12 6.75031C11.9992 6.8162 12.0115 6.8816 12.0364 6.94264C12.0612 7.00368 12.098 7.05914 12.1446 7.10573C12.1912 7.15233 12.2466 7.18913 12.3077 7.21396C12.3687 7.23879 12.4341 7.25115 12.5 7.25031H15.25C15.3429 7.25031 15.4339 7.22445 15.5129 7.17564C15.5919 7.12682 15.6557 7.05697 15.6972 6.97392C15.7388 6.89086 15.7563 6.79789 15.748 6.70541C15.7397 6.61293 15.7057 6.52459 15.65 6.45031ZM9.82502 9.13156C10.3226 8.75015 10.6882 8.22243 10.8705 7.62253C11.0527 7.02263 11.0424 6.38071 10.8411 5.78696C10.6397 5.19321 10.2574 4.67747 9.74778 4.31221C9.2382 3.94695 8.62699 3.75051 8.00002 3.75051C7.37305 3.75051 6.76184 3.94695 6.25226 4.31221C5.74268 4.67747 5.36034 5.19321 5.15897 5.78696C4.9576 6.38071 4.94731 7.02263 5.12955 7.62253C5.31179 8.22243 5.67741 8.75015 6.17502 9.13156C5.20285 9.56317 4.4147 10.3248 3.95002 11.2816C3.91305 11.3576 3.89649 11.4419 3.90197 11.5263C3.90745 11.6107 3.93477 11.6922 3.98127 11.7628C4.02454 11.8353 4.08588 11.8952 4.15928 11.9369C4.23268 11.9785 4.31564 12.0003 4.40002 12.0003H11.6C11.6844 12.0003 11.7674 11.9785 11.8408 11.9369C11.9142 11.8952 11.9755 11.8353 12.0188 11.7628C12.0653 11.6922 12.0926 11.6107 12.0981 11.5263C12.1036 11.4419 12.087 11.3576 12.05 11.2816C11.5853 10.3248 10.7972 9.56317 9.82502 9.13156Z" fill="#F97316"/>
</svg>
