<svg width="29" height="28" viewBox="0 0 29 28" fill="none" xmlns="http://www.w3.org/2000/svg">
<path d="M13.8916 7.91425L16.0216 5.78423C16.4611 5.34434 16.983 4.99535 17.5574 4.75719C18.1318 4.51903 18.7474 4.39638 19.3693 4.39623C19.9911 4.39609 20.6068 4.51846 21.1813 4.75635C21.7558 4.99424 22.2778 5.34299 22.7175 5.78268C23.1572 6.22236 23.506 6.74437 23.7439 7.31888C23.9817 7.89338 24.1041 8.50913 24.104 9.13094C24.1038 9.75275 23.9812 10.3684 23.743 10.9428C23.5049 11.5172 23.1559 12.0391 22.716 12.4786L19.6731 15.5214C19.2335 15.961 18.7117 16.3097 18.1374 16.5476C17.5631 16.7854 16.9476 16.9079 16.3259 16.9079C15.7043 16.9079 15.0888 16.7854 14.5145 16.5476C13.9401 16.3097 13.4183 15.961 12.9788 15.5214" stroke="#3B82F6" stroke-width="2" stroke-linecap="round" stroke-linejoin="round"/>
<path d="M15.1088 20.0857L12.9788 22.2158C12.5393 22.6556 12.0175 23.0046 11.4431 23.2428C10.8687 23.481 10.253 23.6036 9.63119 23.6038C9.00938 23.6039 8.39363 23.4815 7.81913 23.2436C7.24462 23.0058 6.72261 22.657 6.28293 22.2173C5.84324 21.7776 5.49449 21.2556 5.2566 20.6811C5.01871 20.1066 4.89634 19.4909 4.89648 18.8691C4.89663 18.2472 5.01928 17.6315 5.25744 17.0572C5.4956 16.4828 5.84459 15.9609 6.28448 15.5214L9.32736 12.4786C9.76692 12.039 10.2887 11.6903 10.8631 11.4524C11.4374 11.2145 12.0529 11.0921 12.6745 11.0921C13.2962 11.0921 13.9117 11.2145 14.486 11.4524C15.0603 11.6903 15.5821 12.039 16.0217 12.4786" stroke="#3B82F6" stroke-width="2" stroke-linecap="round" stroke-linejoin="round"/>
</svg>
