<svg width="14" height="14" viewBox="0 0 14 14" fill="none" xmlns="http://www.w3.org/2000/svg">
<path d="M14.0001 6.50001C13.9992 5.70464 13.6828 4.9421 13.1204 4.37969C12.558 3.81728 11.7955 3.50092 11.0001 3.50001H8.50112C8.46871 3.49988 5.22731 3.45692 2.14321 0.870245C1.99746 0.74778 1.81977 0.669466 1.63104 0.64451C1.44231 0.619553 1.25038 0.64899 1.0778 0.729361C0.905229 0.809733 0.759183 0.937697 0.656832 1.09822C0.55448 1.25873 0.500078 1.44513 0.500019 1.63551V11.3645C0.498854 11.555 0.552656 11.7417 0.654973 11.9024C0.757289 12.063 0.903775 12.1907 1.07686 12.2702C1.20998 12.3327 1.3552 12.3653 1.50228 12.3655C1.73702 12.3651 1.96404 12.2816 2.14315 12.1298C4.51049 10.1443 6.9703 9.65757 8.00008 9.53849V11.7324C7.99989 11.8971 8.04044 12.0592 8.11813 12.2044C8.19582 12.3496 8.30823 12.4733 8.44533 12.5645L9.1324 13.0225C9.26574 13.1114 9.41848 13.1669 9.57776 13.1844C9.73705 13.2019 9.8982 13.1809 10.0477 13.1231C10.1971 13.0653 10.3305 12.9725 10.4366 12.8524C10.5426 12.7323 10.6183 12.5884 10.6572 12.433L11.3972 9.47291C12.1172 9.37591 12.7777 9.02126 13.2562 8.47465C13.7348 7.92804 13.9991 7.22651 14.0001 6.50001ZM9.68703 12.1904L9.00008 11.7324V9.50001H10.3597L9.68703 12.1904ZM11.0001 8.50001H9.00008V4.50001H11.0001C11.5305 4.50001 12.0392 4.71072 12.4143 5.08579C12.7894 5.46087 13.0001 5.96957 13.0001 6.50001C13.0001 7.03044 12.7894 7.53915 12.4143 7.91422C12.0392 8.28929 11.5305 8.50001 11.0001 8.50001Z" fill="#A1A1AA"/>
</svg>
