<svg width="15" height="15" viewBox="0 0 15 15" fill="none" xmlns="http://www.w3.org/2000/svg">
<path d="M13.9835 1.01649C13.8577 0.890852 13.7008 0.800978 13.5288 0.756105C13.3568 0.711233 13.176 0.712982 13.0049 0.761173L1.3594 4.04578C1.16346 4.10104 0.989054 4.21479 0.859493 4.37183C0.729932 4.52887 0.651389 4.72171 0.634363 4.92458C0.617337 5.12745 0.662639 5.33069 0.764213 5.50712C0.865788 5.68356 1.0188 5.82479 1.20279 5.91193L6.07363 8.21918L9.40377 4.88904C9.49755 4.79527 9.62473 4.74259 9.75735 4.74259C9.88997 4.74259 10.0172 4.79527 10.1109 4.88904C10.2047 4.98282 10.2574 5.11 10.2574 5.24262C10.2574 5.37524 10.2047 5.50242 10.1109 5.5962L6.78079 8.92634L9.08804 13.7972C9.16796 13.9686 9.29525 14.1135 9.45488 14.2148C9.61452 14.3162 9.79982 14.3698 9.98892 14.3692C10.0175 14.3692 10.0464 14.368 10.0754 14.3656C10.2786 14.3497 10.472 14.2716 10.6293 14.1418C10.7865 14.0121 10.9 13.8371 10.9542 13.6406L14.2388 1.99506C14.2869 1.82397 14.2887 1.64314 14.2438 1.47116C14.1989 1.29918 14.1091 1.14225 13.9835 1.01649Z" fill="#A1A1AA"/>
</svg>
