<svg width="33" height="33" viewBox="0 0 33 33" fill="none" xmlns="http://www.w3.org/2000/svg">
<path d="M4.16504 7.03722V24.3705C4.16504 24.5258 4.20118 24.6789 4.27061 24.8178C4.34004 24.9566 4.44084 25.0774 4.56504 25.1705C4.68924 25.2637 4.83341 25.3266 4.98615 25.3544C5.13889 25.3822 5.296 25.374 5.44504 25.3305L27.445 18.9139C27.6528 18.8533 27.8352 18.727 27.965 18.5539C28.0949 18.3808 28.165 18.1703 28.165 17.9539V13.4539C28.165 13.2375 28.0949 13.027 27.965 12.8539C27.8352 12.6808 27.6528 12.5545 27.445 12.4939L5.44504 6.07722C5.296 6.03375 5.13889 6.02558 4.98615 6.05335C4.83341 6.08112 4.68924 6.14407 4.56504 6.23722C4.44084 6.33036 4.34004 6.45115 4.27061 6.59C4.20118 6.72886 4.16504 6.88197 4.16504 7.03722V7.03722Z" stroke="#27272A" stroke-width="2" stroke-linecap="round" stroke-linejoin="round"/>
<path d="M23.166 20.162V24.7039C23.166 24.9691 23.0607 25.2234 22.8731 25.411C22.6856 25.5985 22.4312 25.7039 22.166 25.7039H18.166C17.9008 25.7039 17.6464 25.5985 17.4589 25.411C17.2714 25.2234 17.166 24.9691 17.166 24.7039V9.49574" stroke="#27272A" stroke-width="2" stroke-linecap="round" stroke-linejoin="round"/>
</svg>
