<svg width="14" height="12" viewBox="0 0 14 12" fill="none" xmlns="http://www.w3.org/2000/svg">
<path d="M8.75 3.75V3H8C7.73488 3.0003 7.4807 3.10576 7.29323 3.29323C7.10576 3.4807 7.0003 3.73488 7 4V8C7.0003 8.26512 7.10576 8.5193 7.29323 8.70677C7.4807 8.89424 7.73488 8.9997 8 9H8.75V8.25C8.7503 7.98488 8.85576 7.7307 9.04323 7.54323C9.2307 7.35576 9.48488 7.2503 9.75 7.25H12.25C12.5151 7.2503 12.7693 7.35576 12.9568 7.54323C13.1442 7.7307 13.2497 7.98488 13.25 8.25V10.75C13.2497 11.0151 13.1442 11.2693 12.9568 11.4568C12.7693 11.6442 12.5151 11.7497 12.25 11.75H9.75C9.48488 11.7497 9.2307 11.6442 9.04323 11.4568C8.85576 11.2693 8.7503 11.0151 8.75 10.75V10H8C7.46975 9.9994 6.96139 9.78849 6.58645 9.41355C6.21151 9.03861 6.0006 8.53025 6 8V6.5H4.25V7C4.2497 7.26512 4.14424 7.5193 3.95677 7.70677C3.7693 7.89424 3.51512 7.9997 3.25 8H1.25C0.984877 7.9997 0.730699 7.89424 0.543228 7.70677C0.355757 7.5193 0.250303 7.26512 0.25 7V5C0.250303 4.73488 0.355757 4.4807 0.543228 4.29323C0.730699 4.10576 0.984877 4.0003 1.25 4H3.25C3.51512 4.0003 3.7693 4.10576 3.95677 4.29323C4.14424 4.4807 4.2497 4.73488 4.25 5V5.5H6V4C6.0006 3.46975 6.21151 2.96139 6.58645 2.58645C6.96139 2.21151 7.46975 2.0006 8 2H8.75V1.25C8.7503 0.984877 8.85576 0.730699 9.04323 0.543228C9.2307 0.355757 9.48488 0.250303 9.75 0.25H12.25C12.5151 0.250303 12.7693 0.355757 12.9568 0.543228C13.1442 0.730699 13.2497 0.984877 13.25 1.25V3.75C13.2497 4.01512 13.1442 4.2693 12.9568 4.45677C12.7693 4.64424 12.5151 4.7497 12.25 4.75H9.75C9.48488 4.7497 9.2307 4.64424 9.04323 4.45677C8.85576 4.2693 8.7503 4.01512 8.75 3.75Z" fill="#A1A1AA"/>
</svg>
