<svg width="12" height="12" viewBox="0 0 12 12" fill="none" xmlns="http://www.w3.org/2000/svg">
<path d="M10 0H2C1.46975 0.000606588 0.961398 0.211515 0.586456 0.586456C0.211515 0.961398 0.000606588 1.46975 0 2V10C0.000606588 10.5302 0.211515 11.0386 0.586456 11.4135C0.961398 11.7885 1.46975 11.9994 2 12H10C10.5302 11.9994 11.0386 11.7885 11.4135 11.4135C11.7885 11.0386 11.9994 10.5302 12 10V2C11.9994 1.46975 11.7885 0.961398 11.4135 0.586456C11.0386 0.211515 10.5302 0.000606588 10 0ZM3.75 9C3.60166 9 3.45666 8.95601 3.33332 8.8736C3.20999 8.79119 3.11386 8.67406 3.05709 8.53701C3.00032 8.39997 2.98547 8.24917 3.01441 8.10368C3.04335 7.9582 3.11478 7.82456 3.21967 7.71967C3.32456 7.61478 3.4582 7.54335 3.60368 7.51441C3.74917 7.48547 3.89997 7.50033 4.03701 7.55709C4.17406 7.61386 4.29119 7.70999 4.3736 7.83332C4.45601 7.95666 4.5 8.10166 4.5 8.25C4.5 8.44891 4.42098 8.63968 4.28033 8.78033C4.13968 8.92098 3.94891 9 3.75 9ZM3.75 4.5C3.60166 4.5 3.45666 4.45601 3.33332 4.3736C3.20999 4.29119 3.11386 4.17406 3.05709 4.03701C3.00032 3.89997 2.98547 3.74917 3.01441 3.60368C3.04335 3.4582 3.11478 3.32456 3.21967 3.21967C3.32456 3.11478 3.4582 3.04335 3.60368 3.01441C3.74917 2.98547 3.89997 3.00032 4.03701 3.05709C4.17406 3.11386 4.29119 3.20999 4.3736 3.33332C4.45601 3.45666 4.5 3.60166 4.5 3.75C4.5 3.94891 4.42098 4.13968 4.28033 4.28033C4.13968 4.42098 3.94891 4.5 3.75 4.5ZM6 6.75C5.85166 6.75 5.70666 6.70601 5.58332 6.6236C5.45999 6.54119 5.36386 6.42406 5.30709 6.28701C5.25032 6.14997 5.23547 5.99917 5.26441 5.85368C5.29335 5.7082 5.36478 5.57456 5.46967 5.46967C5.57456 5.36478 5.7082 5.29335 5.85368 5.26441C5.99917 5.23547 6.14997 5.25032 6.28701 5.30709C6.42406 5.36386 6.54119 5.45999 6.6236 5.58332C6.70601 5.70666 6.75 5.85166 6.75 6C6.75 6.19891 6.67098 6.38968 6.53033 6.53033C6.38968 6.67098 6.19891 6.75 6 6.75ZM8.25 9C8.10166 9 7.95666 8.95601 7.83332 8.8736C7.70999 8.79119 7.61386 8.67406 7.55709 8.53701C7.50033 8.39997 7.48547 8.24917 7.51441 8.10368C7.54335 7.9582 7.61478 7.82456 7.71967 7.71967C7.82456 7.61478 7.9582 7.54335 8.10368 7.51441C8.24917 7.48547 8.39997 7.50033 8.53701 7.55709C8.67406 7.61386 8.79119 7.70999 8.8736 7.83332C8.95601 7.95666 9 8.10166 9 8.25C9 8.44891 8.92098 8.63968 8.78033 8.78033C8.63968 8.92098 8.44891 9 8.25 9ZM8.25 4.5C8.10166 4.5 7.95666 4.45601 7.83332 4.3736C7.70999 4.29119 7.61386 4.17406 7.55709 4.03701C7.50033 3.89997 7.48547 3.74917 7.51441 3.60368C7.54335 3.4582 7.61478 3.32456 7.71967 3.21967C7.82456 3.11478 7.9582 3.04335 8.10368 3.01441C8.24917 2.98547 8.39997 3.00032 8.53701 3.05709C8.67406 3.11386 8.79119 3.20999 8.8736 3.33332C8.95601 3.45666 9 3.60166 9 3.75C9 3.94891 8.92098 4.13968 8.78033 4.28033C8.63968 4.42098 8.44891 4.5 8.25 4.5Z" fill="#A1A1AA"/>
</svg>
