<svg width="16" height="16" viewBox="0 0 16 16" fill="none" xmlns="http://www.w3.org/2000/svg">
<path d="M13.5 2.5H8.5V1.5C8.5 1.36739 8.44732 1.24021 8.35355 1.14645C8.25979 1.05268 8.13261 1 8 1C7.86739 1 7.74021 1.05268 7.64645 1.14645C7.55268 1.24021 7.5 1.36739 7.5 1.5V2.5H2.5C2.23488 2.5003 1.9807 2.60576 1.79323 2.79323C1.60576 2.9807 1.5003 3.23488 1.5 3.5V11C1.5003 11.2651 1.60576 11.5193 1.79323 11.7068C1.9807 11.8942 2.23488 11.9997 2.5 12H4.95972L3.60956 13.6877C3.56848 13.7389 3.5379 13.7978 3.51958 13.8609C3.50126 13.924 3.49555 13.9901 3.50278 14.0554C3.51001 14.1207 3.53004 14.1839 3.56172 14.2414C3.5934 14.299 3.63611 14.3497 3.68741 14.3908C3.73871 14.4318 3.7976 14.4623 3.86071 14.4806C3.92381 14.4989 3.9899 14.5045 4.05519 14.4972C4.12048 14.49 4.18369 14.4699 4.24122 14.4381C4.29874 14.4064 4.34945 14.3637 4.39044 14.3123L6.2403 12H9.7597L11.6096 14.3123C11.6924 14.4157 11.813 14.482 11.9447 14.4966C12.0764 14.5112 12.2086 14.4729 12.312 14.3901C12.4155 14.3073 12.4819 14.1868 12.4966 14.0551C12.5113 13.9234 12.4731 13.7912 12.3904 13.6877L11.0403 12H13.5C13.7651 11.9997 14.0193 11.8942 14.2068 11.7068C14.3942 11.5193 14.4997 11.2651 14.5 11V3.5C14.4997 3.23488 14.3942 2.9807 14.2068 2.79323C14.0193 2.60576 13.7651 2.5003 13.5 2.5ZM6.5 9C6.5 9.13261 6.44732 9.25979 6.35355 9.35355C6.25979 9.44732 6.13261 9.5 6 9.5C5.86739 9.5 5.74021 9.44732 5.64645 9.35355C5.55268 9.25979 5.5 9.13261 5.5 9V7.5C5.5 7.36739 5.55268 7.24021 5.64645 7.14645C5.74021 7.05268 5.86739 7 6 7C6.13261 7 6.25979 7.05268 6.35355 7.14645C6.44732 7.24021 6.5 7.36739 6.5 7.5V9ZM8.5 9C8.5 9.13261 8.44732 9.25979 8.35355 9.35355C8.25979 9.44732 8.13261 9.5 8 9.5C7.86739 9.5 7.74021 9.44732 7.64645 9.35355C7.55268 9.25979 7.5 9.13261 7.5 9V6.5C7.5 6.36739 7.55268 6.24021 7.64645 6.14645C7.74021 6.05268 7.86739 6 8 6C8.13261 6 8.25979 6.05268 8.35355 6.14645C8.44732 6.24021 8.5 6.36739 8.5 6.5V9ZM10.5 9C10.5 9.13261 10.4473 9.25979 10.3536 9.35355C10.2598 9.44732 10.1326 9.5 10 9.5C9.86739 9.5 9.74021 9.44732 9.64645 9.35355C9.55268 9.25979 9.5 9.13261 9.5 9V5.5C9.5 5.36739 9.55268 5.24021 9.64645 5.14645C9.74021 5.05268 9.86739 5 10 5C10.1326 5 10.2598 5.05268 10.3536 5.14645C10.4473 5.24021 10.5 5.36739 10.5 5.5V9Z" fill="#A1A1AA"/>
</svg>
