<svg width="74" height="81" viewBox="0 0 74 81" fill="none" xmlns="http://www.w3.org/2000/svg">
<path d="M30.7055 1.664C34.4722 -0.554664 39.1462 -0.554666 42.9129 1.66399L67.4477 16.1153C71.0855 18.258 73.3334 22.1514 73.3701 26.3733L73.618 54.8466C73.656 59.2181 71.319 63.2659 67.5142 65.4186L42.7316 79.4407C39.0571 81.5198 34.5614 81.5198 30.8868 79.4407L6.1042 65.4186C2.29942 63.2659 -0.0375907 59.2181 0.000457616 54.8466L0.248286 26.3733C0.285033 22.1514 2.53288 18.258 6.17072 16.1153L30.7055 1.664Z" fill="#F97316"/>
<path fill-rule="evenodd" clip-rule="evenodd" d="M66.9594 16.9443L42.4246 2.49301C38.9593 0.451838 34.6592 0.45184 31.1938 2.49301L6.65902 16.9443C3.31221 18.9156 1.24419 22.4976 1.21038 26.3816L0.962552 54.855C0.927548 58.8767 3.07759 62.6007 6.57799 64.5812L31.3606 78.6033C34.7412 80.5161 38.8772 80.5161 42.2579 78.6033L67.0404 64.5812C70.5408 62.6007 72.6909 58.8767 72.6559 54.855L72.408 26.3816C72.3742 22.4976 70.3062 18.9156 66.9594 16.9443ZM42.9129 1.66399C39.1462 -0.554666 34.4722 -0.554664 30.7055 1.664L6.17072 16.1153C2.53288 18.258 0.285033 22.1514 0.248286 26.3733L0.000457609 54.8466C-0.0375904 59.2181 2.29942 63.2659 6.1042 65.4186L30.8868 79.4407C34.5614 81.5198 39.0571 81.5198 42.7316 79.4407L67.5142 65.4186C71.319 63.2659 73.656 59.2181 73.618 54.8466L73.3701 26.3733C73.3334 22.1514 71.0855 18.258 67.4477 16.1153L42.9129 1.66399Z" fill="black"/>
<path d="M30.7051 9.84173C34.4718 7.62307 39.1458 7.62307 42.9125 9.84173L60.4356 20.1631C64.0735 22.3058 66.3213 26.1992 66.3581 30.4211L66.5351 50.7572C66.5731 55.1286 64.2361 59.1764 60.4314 61.3292L42.7312 71.344C39.0566 73.4231 34.5609 73.4231 30.8864 71.344L13.1862 61.3292C9.38144 59.1764 7.04444 55.1286 7.08249 50.7572L7.25949 30.4211C7.29624 26.1992 9.54409 22.3058 13.1819 20.1631L30.7051 9.84173Z" fill="#FAFAFA"/>
<path fill-rule="evenodd" clip-rule="evenodd" d="M59.9473 20.9921L42.4242 10.6707C38.9588 8.62957 34.6587 8.62957 31.1934 10.6707L13.6702 20.9921C10.3234 22.9634 8.25539 26.5453 8.22158 30.4294L8.04458 50.7656C8.00958 54.7873 10.1596 58.5113 13.66 60.4918L31.3601 70.5066C34.7408 72.4194 38.8768 72.4194 42.2574 70.5066L59.9576 60.4918C63.458 58.5113 65.608 54.7873 65.573 50.7656L65.396 30.4294C65.3622 26.5453 63.2942 22.9634 59.9473 20.9921ZM42.9125 9.84173C39.1458 7.62307 34.4718 7.62307 30.7051 9.84173L13.1819 20.1631C9.54409 22.3058 7.29624 26.1992 7.25949 30.4211L7.08249 50.7572C7.04444 55.1286 9.38144 59.1764 13.1862 61.3292L30.8864 71.344C34.5609 73.4231 39.0566 73.4231 42.7312 71.344L60.4314 61.3292C64.2361 59.1764 66.5731 55.1286 66.5351 50.7572L66.3581 30.4211C66.3213 26.1992 64.0735 22.3058 60.4356 20.1631L42.9125 9.84173Z" fill="black"/>
<path d="M20.5747 34.1404C20.7172 33.6941 21.3487 33.6941 21.4913 34.1404L22.7305 38.0214C22.7942 38.2208 22.9795 38.3562 23.1888 38.3562L27.2168 38.3562C27.6808 38.3562 27.8759 38.9482 27.5028 39.2241L24.2298 41.6438C24.0641 41.7663 23.9948 41.9807 24.0575 42.1769L25.3042 46.0814C25.4462 46.5261 24.9353 46.8921 24.56 46.6146L21.319 44.2185C21.149 44.0929 20.917 44.0929 20.747 44.2185L17.506 46.6146C17.1306 46.8921 16.6197 46.5261 16.7617 46.0814L18.0085 42.1769C18.0712 41.9807 18.0019 41.7663 17.8362 41.6438L14.5632 39.2241C14.1901 38.9482 14.3852 38.3562 14.8492 38.3562L18.8772 38.3562C19.0865 38.3562 19.2718 38.2208 19.3354 38.0214L20.5747 34.1404Z" fill="#F97316"/>
<path fill-rule="evenodd" clip-rule="evenodd" d="M21.033 35.0775L20.0228 38.2409C19.8637 38.7394 19.4004 39.0778 18.8772 39.0778L15.5792 39.0778L18.2652 41.0635C18.6794 41.3698 18.8526 41.9057 18.6959 42.3964L17.6756 45.5918L20.318 43.6383C20.7429 43.3242 21.3231 43.3242 21.7479 43.6383L24.3904 45.5918L23.3701 42.3964C23.2134 41.9057 23.3866 41.3697 23.8008 41.0635L26.4868 39.0778L23.1888 39.0778C22.6655 39.0778 22.2023 38.7394 22.0431 38.2409L21.033 35.0775ZM21.4913 34.1404C21.3487 33.6941 20.7172 33.6941 20.5747 34.1404L19.3354 38.0214C19.2718 38.2208 19.0865 38.3562 18.8772 38.3562L14.8492 38.3562C14.3852 38.3562 14.1901 38.9482 14.5632 39.2241L17.8362 41.6438C18.0019 41.7663 18.0712 41.9807 18.0085 42.1769L16.7617 46.0814C16.6197 46.5261 17.1306 46.8921 17.506 46.6146L20.747 44.2185C20.917 44.0929 21.149 44.0929 21.319 44.2185L24.56 46.6146C24.9353 46.8921 25.4462 46.5261 25.3042 46.0814L24.0575 42.1769C23.9948 41.9807 24.0641 41.7663 24.2298 41.6438L27.5028 39.2241C27.8759 38.9482 27.6808 38.3562 27.2168 38.3562L23.1888 38.3562C22.9795 38.3562 22.7942 38.2208 22.7305 38.0214L21.4913 34.1404Z" fill="black"/>
<path d="M52.7232 34.1404C52.8657 33.6941 53.4972 33.6941 53.6397 34.1404L54.879 38.0214C54.9426 38.2208 55.1279 38.3562 55.3372 38.3562L59.3652 38.3562C59.8292 38.3562 60.0243 38.9482 59.6512 39.2241L56.3782 41.6438C56.2125 41.7663 56.1432 41.9807 56.2059 42.1769L57.4527 46.0814C57.5947 46.5261 57.0838 46.8921 56.7084 46.6146L53.4674 44.2185C53.2974 44.0929 53.0654 44.0929 52.8954 44.2185L49.6544 46.6146C49.2791 46.8921 48.7682 46.5261 48.9102 46.0814L50.1569 42.1769C50.2196 41.9807 50.1503 41.7663 49.9846 41.6438L46.7116 39.2241C46.3385 38.9482 46.5336 38.3562 46.9976 38.3562L51.0256 38.3562C51.2349 38.3562 51.4202 38.2208 51.4839 38.0214L52.7232 34.1404Z" fill="#F97316"/>
<path d="M37.2075 34.1404C37.35 33.6941 37.9815 33.6941 38.1241 34.1404L39.3634 38.0214C39.427 38.2208 39.6123 38.3562 39.8216 38.3562L43.8496 38.3562C44.3136 38.3562 44.5087 38.9482 44.1356 39.2241L40.8626 41.6438C40.6969 41.7663 40.6276 41.9807 40.6903 42.1769L41.937 46.0814C42.079 46.5261 41.5682 46.8921 41.1928 46.6146L37.9518 44.2185C37.7818 44.0929 37.5498 44.0929 37.3798 44.2185L34.1388 46.6146C33.7634 46.8921 33.2525 46.5261 33.3945 46.0814L34.6413 42.1769C34.704 41.9807 34.6347 41.7663 34.469 41.6438L31.196 39.2241C30.8229 38.9482 31.018 38.3562 31.482 38.3562L35.51 38.3562C35.7193 38.3562 35.9046 38.2208 35.9682 38.0214L37.2075 34.1404Z" fill="#F97316"/>
<path fill-rule="evenodd" clip-rule="evenodd" d="M53.1814 35.0775L52.1713 38.2409C52.0121 38.7394 51.5489 39.0778 51.0256 39.0778L47.7276 39.0778L50.4136 41.0635C50.8278 41.3698 51.001 41.9057 50.8443 42.3964L49.824 45.5918L52.4665 43.6383C52.8914 43.3242 53.4715 43.3242 53.8964 43.6383L56.5388 45.5918L55.5185 42.3964C55.3618 41.9057 55.535 41.3697 55.9492 41.0635L58.6353 39.0778L55.3372 39.0778C54.814 39.0778 54.3507 38.7394 54.1916 38.2409L53.1814 35.0775ZM53.6397 34.1404C53.4972 33.6941 52.8657 33.6941 52.7232 34.1404L51.4839 38.0214C51.4202 38.2208 51.2349 38.3562 51.0256 38.3562L46.9976 38.3562C46.5336 38.3562 46.3385 38.9482 46.7116 39.2241L49.9846 41.6438C50.1503 41.7663 50.2196 41.9807 50.1569 42.1769L48.9102 46.0814C48.7682 46.5261 49.2791 46.8921 49.6544 46.6146L52.8954 44.2185C53.0654 44.0929 53.2974 44.0929 53.4674 44.2185L56.7084 46.6146C57.0838 46.8921 57.5947 46.5261 57.4527 46.0814L56.2059 42.1769C56.1432 41.9807 56.2125 41.7663 56.3782 41.6438L59.6512 39.2241C60.0243 38.9482 59.8292 38.3562 59.3652 38.3562L55.3372 38.3562C55.1279 38.3562 54.9426 38.2208 54.879 38.0214L53.6397 34.1404Z" fill="black"/>
<path fill-rule="evenodd" clip-rule="evenodd" d="M37.6658 35.0775L36.6556 38.2409C36.4965 38.7394 36.0332 39.0778 35.51 39.0778L32.212 39.0778L34.898 41.0635C35.3122 41.3698 35.4854 41.9057 35.3287 42.3964L34.3084 45.5918L36.9508 43.6383C37.3757 43.3242 37.9559 43.3242 38.3807 43.6383L41.0232 45.5918L40.0029 42.3964C39.8462 41.9057 40.0194 41.3697 40.4336 41.0635L43.1196 39.0778L39.8216 39.0778C39.2983 39.0778 38.8351 38.7394 38.6759 38.2409L37.6658 35.0775ZM38.1241 34.1404C37.9815 33.6941 37.35 33.6941 37.2075 34.1404L35.9682 38.0214C35.9046 38.2208 35.7193 38.3562 35.51 38.3562L31.482 38.3562C31.018 38.3562 30.8229 38.9482 31.196 39.2241L34.469 41.6438C34.6347 41.7663 34.704 41.9807 34.6413 42.1769L33.3945 46.0814C33.2525 46.5261 33.7634 46.8921 34.1388 46.6146L37.3798 44.2185C37.5498 44.0929 37.7818 44.0929 37.9518 44.2185L41.1928 46.6146C41.5682 46.8921 42.079 46.5261 41.937 46.0814L40.6903 42.1769C40.6276 41.9807 40.6969 41.7663 40.8626 41.6438L44.1356 39.2241C44.5087 38.9482 44.3136 38.3562 43.8496 38.3562L39.8216 38.3562C39.6123 38.3562 39.427 38.2208 39.3634 38.0214L38.1241 34.1404Z" fill="black"/>
</svg>
