<svg width="74" height="81" viewBox="0 0 74 81" fill="none" xmlns="http://www.w3.org/2000/svg">
<path d="M30.8646 1.664C34.6509 -0.554664 39.3491 -0.554666 43.1354 1.66399L67.7973 16.1153C71.454 18.258 73.7135 22.1514 73.7504 26.3733L73.9995 54.8466C74.0378 59.2181 71.6887 63.2659 67.8642 65.4186L42.9531 79.4407C39.2595 81.5198 34.7405 81.5198 31.0469 79.4407L6.13584 65.4186C2.31133 63.2659 -0.0377855 59.2181 0.000459988 54.8466L0.249573 26.3733C0.28651 22.1514 2.54601 18.258 6.20271 16.1153L30.8646 1.664Z" fill="#F97316"/>
<path fill-rule="evenodd" clip-rule="evenodd" d="M67.3065 16.9443L42.6445 2.49301C39.1612 0.451838 34.8388 0.45184 31.3555 2.49301L6.69354 16.9443C3.32938 18.9156 1.25064 22.4976 1.21665 26.3816L0.967541 54.855C0.932355 58.8767 3.09355 62.6007 6.61209 64.5812L31.5231 78.6033C34.9213 80.5161 39.0787 80.5161 42.4769 78.6033L67.3879 64.5812C70.9065 62.6007 73.0676 58.8767 73.0325 54.855L72.7833 26.3816C72.7494 22.4976 70.6706 18.9156 67.3065 16.9443ZM43.1354 1.66399C39.3491 -0.554666 34.6509 -0.554664 30.8646 1.664L6.20271 16.1153C2.54601 18.258 0.28651 22.1514 0.249573 26.3733L0.000459981 54.8466C-0.0377852 59.2181 2.31134 63.2659 6.13584 65.4186L31.0469 79.4407C34.7405 81.5198 39.2595 81.5198 42.9531 79.4407L67.8642 65.4186C71.6887 63.2659 74.0378 59.2181 73.9995 54.8466L73.7504 26.3733C73.7135 22.1514 71.454 18.258 67.7973 16.1153L43.1354 1.66399Z" fill="black"/>
<path d="M30.8666 9.84173C34.6528 7.62307 39.351 7.62307 43.1373 9.84173L60.7513 20.1631C64.4079 22.3058 66.6674 26.1992 66.7044 30.4211L66.8823 50.7572C66.9205 55.1286 64.5714 59.1764 60.7469 61.3292L42.9551 71.344C39.2614 73.4231 34.7424 73.4231 31.0488 71.344L13.2569 61.3292C9.43242 59.1764 7.08331 55.1286 7.12155 50.7572L7.29947 30.4211C7.33641 26.1992 9.59591 22.3058 13.2526 20.1631L30.8666 9.84173Z" fill="#FAFAFA"/>
<path fill-rule="evenodd" clip-rule="evenodd" d="M60.2604 20.9921L42.6465 10.6707C39.1631 8.62957 34.8407 8.62957 31.3574 10.6707L13.7434 20.9921C10.3793 22.9634 8.30054 26.5453 8.26655 30.4294L8.08863 50.7656C8.05345 54.7873 10.2146 58.5113 13.7332 60.4918L31.525 70.5066C34.9232 72.4194 39.0807 72.4194 42.4788 70.5066L60.2707 60.4918C63.7892 58.5113 65.9504 54.7873 65.9152 50.7656L65.7373 30.4294C65.7033 26.5453 63.6246 22.9634 60.2604 20.9921ZM43.1373 9.84173C39.351 7.62307 34.6528 7.62307 30.8666 9.84173L13.2526 20.1631C9.59591 22.3058 7.33641 26.1992 7.29947 30.4211L7.12155 50.7572C7.08331 55.1286 9.43242 59.1764 13.2569 61.3292L31.0488 71.344C34.7424 73.4231 39.2614 73.4231 42.9551 71.344L60.7469 61.3292C64.5714 59.1764 66.9205 55.1286 66.8823 50.7572L66.7044 30.4211C66.6674 26.1992 64.408 22.3058 60.7513 20.1631L43.1373 9.84173Z" fill="black"/>
<path d="M36.3222 20.1287C36.6117 19.2423 37.8723 19.2423 38.1618 20.1287L42.3446 32.9357C42.4741 33.3321 42.8454 33.6005 43.2644 33.6005L56.8002 33.6005C57.7371 33.6005 58.1266 34.7931 57.3687 35.341L46.418 43.2561C46.079 43.5011 45.9372 43.9354 46.0666 44.3318L50.2494 57.1388C50.539 58.0252 49.5191 58.7623 48.7612 58.2145L37.8105 50.2993C37.4715 50.0543 37.0125 50.0543 36.6736 50.2993L25.7228 58.2145C24.9649 58.7623 23.9451 58.0252 24.2346 57.1388L28.4174 44.3318C28.5469 43.9354 28.405 43.5011 28.0661 43.2561L17.1154 35.341C16.3574 34.7931 16.7469 33.6005 17.6838 33.6005L31.2197 33.6005C31.6386 33.6005 32.01 33.3321 32.1394 32.9356L36.3222 20.1287Z" fill="#F97316"/>
<path fill-rule="evenodd" clip-rule="evenodd" d="M41.4248 33.233L37.242 20.426L33.0592 33.233C32.8003 34.0258 32.0576 34.5626 31.2197 34.5626L17.6838 34.5626L28.6345 42.4777C29.3125 42.9677 29.5961 43.8363 29.3372 44.6291L25.1544 57.4361L36.1051 49.521C36.783 49.031 37.701 49.031 38.3789 49.521L49.3297 57.4361L45.1469 44.6291C44.8879 43.8363 45.1716 42.9677 45.8495 42.4777L56.8002 34.5626L43.2644 34.5626C42.4264 34.5626 41.6838 34.0258 41.4248 33.233ZM38.1618 20.1287C37.8723 19.2423 36.6117 19.2423 36.3222 20.1287L32.1394 32.9356C32.01 33.3321 31.6386 33.6005 31.2197 33.6005L17.6838 33.6005C16.7469 33.6005 16.3574 34.7931 17.1154 35.341L28.0661 43.2561C28.405 43.5011 28.5469 43.9354 28.4174 44.3318L24.2346 57.1388C23.9451 58.0252 24.9649 58.7623 25.7228 58.2145L36.6736 50.2993C37.0125 50.0543 37.4715 50.0543 37.8105 50.2993L48.7612 58.2145C49.5191 58.7623 50.539 58.0252 50.2494 57.1388L46.0666 44.3318C45.9372 43.9354 46.079 43.5011 46.418 43.2561L57.3687 35.341C58.1266 34.7931 57.7371 33.6005 56.8002 33.6005L43.2644 33.6005C42.8454 33.6005 42.4741 33.3321 42.3446 32.9357L38.1618 20.1287Z" fill="black"/>
</svg>
