<svg width="28" height="29" viewBox="0 0 28 29" fill="none" xmlns="http://www.w3.org/2000/svg">
<path d="M26.9679 1.56025C26.7165 1.30899 26.4026 1.12924 26.0586 1.03949C25.7146 0.949749 25.353 0.953247 25.0108 1.04963L1.71978 7.61885C1.3279 7.72937 0.979084 7.95687 0.719962 8.27094C0.46084 8.58502 0.303755 8.9707 0.269703 9.37644C0.235651 9.78219 0.326254 10.1887 0.529403 10.5415C0.732552 10.8944 1.03857 11.1769 1.40655 11.3511L11.1482 15.9656L17.8085 9.30537C17.9961 9.11782 18.2504 9.01246 18.5157 9.01246C18.7809 9.01246 19.0353 9.11782 19.2228 9.30537C19.4104 9.49292 19.5157 9.74729 19.5157 10.0125C19.5157 10.2778 19.4104 10.5321 19.2228 10.7197L12.5626 17.38L17.1771 27.1217C17.3369 27.4644 17.5915 27.7543 17.9107 27.957C18.23 28.1597 18.6006 28.2668 18.9788 28.2657C19.0361 28.2657 19.0937 28.2633 19.1518 28.2585C19.5582 28.2267 19.945 28.0704 20.2595 27.811C20.574 27.5515 20.8009 27.2014 20.9094 26.8084L27.4786 3.51741C27.5749 3.17522 27.5783 2.81357 27.4886 2.46961C27.3988 2.12565 27.2191 1.81178 26.9679 1.56025V1.56025Z" fill="#F97316"/>
</svg>
