<svg width="29" height="33" viewBox="0 0 29 33" fill="none" xmlns="http://www.w3.org/2000/svg">
<path d="M30.2296 24.073C25.2742 21.6734 24.4844 17.9686 24.4492 17.6938C24.4067 17.361 24.3585 17.0993 24.7256 16.7607C25.0796 16.4336 26.6502 15.4612 27.086 15.1569C27.8063 14.6531 28.1235 14.1502 27.8897 13.5319C27.7261 13.1042 27.328 12.9431 26.9086 12.9431C26.7762 12.9435 26.6444 12.9583 26.5153 12.9872C25.7239 13.159 24.9553 13.5556 24.5106 13.6627C24.4571 13.6765 24.4022 13.6839 24.347 13.6848C24.1099 13.6848 24.02 13.5793 24.0429 13.2939C24.0985 12.4286 24.2162 10.7398 24.0797 9.16221C23.8925 6.99168 23.1926 5.91623 22.3628 4.96509C21.9613 4.50383 20.0972 2.52222 16.4998 2.52222C12.9024 2.52222 11.0408 4.50383 10.6418 4.95936C9.80949 5.9105 9.11045 6.98595 8.92486 9.15648C8.78832 10.7341 8.91096 12.4221 8.96165 13.2882C8.978 13.5597 8.89461 13.6791 8.65751 13.6791C8.60233 13.6782 8.54744 13.6707 8.49399 13.657C8.05004 13.5499 7.2815 13.1532 6.49008 12.9815C6.36098 12.9525 6.22912 12.9377 6.09682 12.9373C5.67576 12.9373 5.27923 13.1009 5.11571 13.5262C4.88188 14.1445 5.19747 14.6474 5.92022 15.1512C6.35599 15.4554 7.92658 16.427 8.2806 16.755C8.64688 17.0936 8.59946 17.3553 8.55694 17.6881C8.52179 17.967 7.73118 21.6718 2.77659 24.0672C2.48634 24.2079 1.99252 24.5056 2.86325 24.9865C4.23026 25.7421 5.14024 25.6612 5.84745 26.1167C6.44756 26.5036 6.09273 27.3377 6.52932 27.6387C7.06566 28.0092 8.65097 27.6125 10.699 28.2889C12.416 28.8548 13.4592 30.4537 16.5039 30.4537C19.5486 30.4537 20.6221 28.8475 22.3088 28.2889C24.3528 27.6125 25.9413 28.0092 26.4785 27.6387C26.9143 27.3377 26.5603 26.5036 27.1604 26.1167C27.8676 25.6612 28.7767 25.7421 30.1446 24.9865C31.0137 24.5113 30.5198 24.2136 30.2296 24.073Z" fill="white"/>
<path d="M32.3856 23.7913C32.1632 23.1861 31.7397 22.8623 31.2573 22.594C31.1666 22.5409 31.0832 22.4983 31.012 22.4656C30.8682 22.3912 30.721 22.3192 30.5746 22.2432C29.0711 21.4458 27.897 20.4399 27.0827 19.2475C26.8515 18.9118 26.6509 18.5559 26.4834 18.1843C26.4139 17.9855 26.4172 17.8727 26.4671 17.7696C26.5165 17.6902 26.582 17.622 26.6592 17.5693C26.9176 17.3983 27.1841 17.225 27.3648 17.108C27.6869 16.8995 27.942 16.7343 28.1063 16.6173C28.7236 16.1855 29.1553 15.7267 29.4251 15.2139C29.6133 14.8596 29.7231 14.469 29.747 14.0685C29.7708 13.668 29.7082 13.267 29.5633 12.8929C29.1545 11.8166 28.1382 11.1484 26.9069 11.1484C26.6472 11.1482 26.3882 11.1756 26.1343 11.2302C26.0664 11.245 25.9986 11.2605 25.9324 11.2777C25.9438 10.5416 25.9275 9.76467 25.8621 9C25.6299 6.31178 24.6888 4.90265 23.7077 3.77895C23.0794 3.07479 22.3394 2.47905 21.5174 2.0157C20.0286 1.16515 18.3402 0.733337 16.4998 0.733337C14.6594 0.733337 12.9793 1.16515 11.4888 2.0157C10.6648 2.47919 9.92328 3.07612 9.29443 3.78222C8.31332 4.90592 7.37227 6.31751 7.14008 9.00327C7.07467 9.76795 7.05832 10.549 7.06895 11.2809C7.00272 11.2638 6.93568 11.2482 6.86782 11.2335C6.61391 11.1789 6.35491 11.1515 6.0952 11.1517C4.86309 11.1517 3.84519 11.8199 3.43803 12.8962C3.2925 13.2704 3.22922 13.6717 3.2525 14.0726C3.27577 14.4735 3.38506 14.8647 3.57294 15.2196C3.84356 15.7324 4.27524 16.1912 4.89252 16.623C5.05604 16.7375 5.31195 16.9027 5.63408 17.1137C5.80822 17.2266 6.0625 17.3918 6.31186 17.557C6.39911 17.6134 6.47326 17.6879 6.52934 17.7754C6.58167 17.8825 6.5833 17.9978 6.50563 18.2104C6.34043 18.5743 6.14315 18.9227 5.91615 19.2515C5.11981 20.417 3.9801 21.4049 2.52479 22.1957C1.7538 22.6047 0.952563 22.8778 0.614081 23.7979C0.358993 24.4922 0.525781 25.2822 1.17413 25.948C1.41208 26.1964 1.68806 26.4054 1.99172 26.5671C2.62354 26.9144 3.29539 27.1833 3.99236 27.3677C4.13619 27.4048 4.27273 27.4659 4.39625 27.5485C4.63253 27.7554 4.59901 28.067 4.91378 28.5233C5.07179 28.7592 5.27256 28.9633 5.50572 29.1253C6.16633 29.5816 6.9087 29.6102 7.69522 29.6405C8.40571 29.6675 9.21103 29.6986 10.1308 30.002C10.5118 30.1279 10.9075 30.3716 11.3662 30.6562C12.4675 31.3334 13.9751 32.26 16.4982 32.26C19.0213 32.26 20.5395 31.3285 21.649 30.6489C22.1044 30.3692 22.4977 30.1279 22.868 30.0052C23.7878 29.701 24.5932 29.6707 25.3036 29.6438C26.0902 29.6135 26.8325 29.5849 27.4931 29.1285C27.7693 28.9359 27.9993 28.6846 28.1668 28.3925C28.3933 28.0073 28.3876 27.7382 28.6002 27.5501C28.716 27.4715 28.8443 27.4129 28.9795 27.3767C29.686 27.1917 30.367 26.9203 31.0071 26.5687C31.3298 26.3956 31.6202 26.1682 31.8656 25.8964L31.8738 25.8866C32.4821 25.2356 32.635 24.4685 32.3856 23.7913ZM30.143 24.9968C28.7751 25.7525 27.866 25.6715 27.1587 26.1271C26.5578 26.5139 26.9135 27.3481 26.4769 27.6491C25.9405 28.0195 24.3552 27.6229 22.3072 28.2992C20.618 28.8578 19.5405 30.464 16.5023 30.464C13.4641 30.464 12.4119 28.8611 10.695 28.2951C8.65098 27.6188 7.06241 28.0154 6.52525 27.645C6.08948 27.344 6.44349 26.5098 5.84338 26.123C5.13535 25.6674 4.22619 25.7484 2.85918 24.9968C1.98845 24.5159 2.48227 24.2183 2.77252 24.0776C7.72711 21.6781 8.51772 17.9733 8.55287 17.6985C8.59539 17.3656 8.64281 17.1039 8.27653 16.7653C7.92251 16.4382 6.35192 15.4658 5.91615 15.1616C5.19503 14.6578 4.87781 14.1548 5.11164 13.5365C5.27516 13.1088 5.67414 12.9477 6.09275 12.9477C6.22505 12.9481 6.35691 12.9629 6.48601 12.9918C7.27743 13.1636 8.04597 13.5602 8.48992 13.6674C8.54337 13.6811 8.59825 13.6885 8.65344 13.6895C8.89054 13.6895 8.97393 13.5701 8.95758 13.2985C8.90689 12.4324 8.78425 10.7444 8.92079 9.16684C9.10802 6.99631 9.80705 5.92086 10.6377 4.96972C11.0367 4.51255 12.9114 2.53094 16.4966 2.53094C20.0817 2.53094 21.9613 4.50437 22.3603 4.9599C23.1918 5.91104 23.8917 6.98649 24.0773 9.15702C24.2138 10.7346 24.0961 12.4235 24.0405 13.2887C24.0217 13.5741 24.1075 13.6796 24.3446 13.6796C24.3998 13.6788 24.4547 13.6713 24.5081 13.6576C24.9529 13.5504 25.7214 13.1538 26.5129 12.982C26.642 12.9531 26.7738 12.9383 26.9061 12.9379C27.3272 12.9379 27.7237 13.1014 27.8872 13.5267C28.1211 14.145 27.8055 14.648 27.0835 15.1517C26.6478 15.456 25.0772 16.4276 24.7232 16.7555C24.3561 17.0941 24.4043 17.3558 24.4468 17.6887C24.482 17.9675 25.2718 21.6723 30.2272 24.0678C30.5199 24.2142 31.0137 24.5119 30.143 24.9968Z" fill="black"/>
</svg>
