<svg width="16" height="16" viewBox="0 0 16 16" fill="none" xmlns="http://www.w3.org/2000/svg">
<path d="M7 2.5H3C2.72386 2.5 2.5 2.72386 2.5 3V7C2.5 7.27614 2.72386 7.5 3 7.5H7C7.27614 7.5 7.5 7.27614 7.5 7V3C7.5 2.72386 7.27614 2.5 7 2.5Z" fill="#F97316"/>
<path d="M13 2.5H9C8.72386 2.5 8.5 2.72386 8.5 3V7C8.5 7.27614 8.72386 7.5 9 7.5H13C13.2761 7.5 13.5 7.27614 13.5 7V3C13.5 2.72386 13.2761 2.5 13 2.5Z" fill="#F97316"/>
<path d="M7 8.5H3C2.72386 8.5 2.5 8.72386 2.5 9V13C2.5 13.2761 2.72386 13.5 3 13.5H7C7.27614 13.5 7.5 13.2761 7.5 13V9C7.5 8.72386 7.27614 8.5 7 8.5Z" fill="#F97316"/>
<path d="M13 8.5H9C8.72386 8.5 8.5 8.72386 8.5 9V13C8.5 13.2761 8.72386 13.5 9 13.5H13C13.2761 13.5 13.5 13.2761 13.5 13V9C13.5 8.72386 13.2761 8.5 13 8.5Z" fill="#F97316"/>
</svg>
