<svg width="16" height="16" viewBox="0 0 16 16" fill="none" xmlns="http://www.w3.org/2000/svg">
<path d="M13.7481 10.5681L8.00001 13.9211L2.25196 10.5681C2.13742 10.5013 2.00102 10.4827 1.87278 10.5164C1.74453 10.5502 1.63494 10.6335 1.56812 10.748C1.5013 10.8626 1.48272 10.999 1.51646 11.1272C1.5502 11.2555 1.63351 11.3651 1.74805 11.4319L7.74805 14.9319C7.82453 14.9765 7.91147 15 8.00001 15C8.08854 15 8.17549 14.9765 8.25196 14.9319L14.252 11.4319C14.3087 11.3988 14.3583 11.3549 14.3981 11.3026C14.4378 11.2503 14.4668 11.1907 14.4836 11.1272C14.5003 11.0637 14.5043 10.9976 14.4954 10.9325C14.4866 10.8674 14.465 10.8048 14.4319 10.748C14.3988 10.6913 14.3549 10.6417 14.3026 10.6019C14.2503 10.5622 14.1907 10.5332 14.1272 10.5164C14.0637 10.4997 13.9976 10.4957 13.9325 10.5046C13.8674 10.5134 13.8048 10.535 13.7481 10.5681Z" fill="#A1A1AA"/>
<path d="M13.7481 7.56811L8.00001 10.9211L2.25196 7.56811C2.13742 7.50129 2.00102 7.4827 1.87278 7.51645C1.74453 7.55019 1.63494 7.6335 1.56812 7.74804C1.5013 7.86258 1.48272 7.99898 1.51646 8.12723C1.5502 8.25547 1.63351 8.36506 1.74805 8.43188L7.74805 11.9319C7.82453 11.9765 7.91147 12 8.00001 12C8.08854 12 8.17549 11.9765 8.25196 11.9319L14.252 8.43188C14.3665 8.36506 14.4498 8.25547 14.4836 8.12723C14.5173 7.99898 14.4987 7.86258 14.4319 7.74804C14.3651 7.6335 14.2555 7.55019 14.1272 7.51645C13.999 7.4827 13.8626 7.50129 13.7481 7.56811Z" fill="#A1A1AA"/>
<path d="M1.74805 5.43188L7.74805 8.93188C7.82452 8.97649 7.91147 9 8 9C8.08853 9 8.17548 8.97649 8.25195 8.93188L14.252 5.43188C14.3274 5.38785 14.3901 5.3248 14.4336 5.24902C14.4771 5.17325 14.5 5.08739 14.5 5C14.5 4.91261 14.4771 4.82675 14.4336 4.75098C14.3901 4.6752 14.3274 4.61215 14.252 4.56812L8.25195 1.06811C8.17548 1.02351 8.08853 1 8 1C7.91147 1 7.82452 1.02351 7.74805 1.06811L1.74805 4.56812C1.67257 4.61215 1.60995 4.6752 1.56642 4.75098C1.5229 4.82675 1.5 4.91261 1.5 5C1.5 5.08739 1.5229 5.17325 1.56642 5.24902C1.60995 5.3248 1.67257 5.38785 1.74805 5.43188Z" fill="#A1A1AA"/>
</svg>
