<svg width="14" height="14" viewBox="0 0 14 14" fill="none" xmlns="http://www.w3.org/2000/svg">
<path d="M11.635 11.5521C12.8301 10.3384 13.5 8.70334 13.5 7C13.5 5.29666 12.8301 3.66165 11.635 2.44794C11.611 2.41689 11.5832 2.38903 11.5521 2.36502C10.3384 1.16988 8.70337 0.5 7 0.5C5.29663 0.5 3.66159 1.16988 2.44787 2.36502C2.41683 2.38903 2.38897 2.41689 2.36496 2.44794C1.16986 3.66165 0.5 5.29666 0.5 7C0.5 8.70334 1.16986 10.3384 2.36496 11.5521C2.37704 11.5675 2.39001 11.5822 2.40381 11.5962C2.41774 11.61 2.43246 11.6229 2.44791 11.635C3.66162 12.8301 5.29665 13.5 7 13.5C8.70335 13.5 10.3384 12.8301 11.5521 11.635C11.5675 11.6229 11.5823 11.61 11.5962 11.5962C11.61 11.5822 11.623 11.5675 11.635 11.5521ZM5 7C5 6.60444 5.1173 6.21776 5.33706 5.88886C5.55682 5.55996 5.86918 5.30362 6.23463 5.15224C6.60008 5.00087 7.00222 4.96126 7.39018 5.03843C7.77814 5.1156 8.13451 5.30608 8.41421 5.58579C8.69392 5.86549 8.8844 6.22186 8.96157 6.60982C9.03874 6.99778 8.99913 7.39992 8.84776 7.76537C8.69638 8.13082 8.44004 8.44318 8.11114 8.66294C7.78224 8.8827 7.39556 9 7 9C6.46975 8.9994 5.9614 8.78849 5.58646 8.41355C5.21151 8.0386 5.00061 7.53025 5 7ZM10.5175 2.7753L8.73672 4.55613C8.22985 4.19442 7.62269 4 7 4C6.3773 4 5.77015 4.19442 5.26327 4.55613L3.48245 2.7753C4.46941 1.95134 5.71431 1.5 7 1.5C8.28569 1.5 9.53058 1.95134 10.5175 2.7753ZM3.48245 11.2247L5.26327 9.44388C5.77015 9.80558 6.3773 10 7 10C7.62269 10 8.22985 9.80558 8.73672 9.44388L10.5175 11.2247C9.53058 12.0487 8.28569 12.5 7 12.5C5.71431 12.5 4.46941 12.0487 3.48245 11.2247Z" fill="#A1A1AA"/>
</svg>
