<svg width="33" height="33" viewBox="0 0 33 33" fill="none" xmlns="http://www.w3.org/2000/svg">
<g clip-path="url(#clip0)">
<path d="M10.5634 29.5009C22.6389 29.5009 29.2437 19.4964 29.2437 10.8206C29.2437 10.5364 29.2437 10.2536 29.2245 9.97196C30.5094 9.04256 31.6185 7.8918 32.5 6.57356C31.3019 7.10476 30.0307 7.45296 28.7291 7.60652C30.0998 6.7861 31.1255 5.49556 31.6155 3.97516C30.3268 4.73997 28.9168 5.27893 27.4466 5.56876C26.4567 4.51619 25.1475 3.81921 23.7216 3.58567C22.2957 3.35213 20.8326 3.59504 19.5586 4.27683C18.2847 4.95861 17.271 6.04125 16.6743 7.35722C16.0777 8.67319 15.9314 10.1491 16.2581 11.5566C13.6479 11.4257 11.0943 10.7473 8.76327 9.56556C6.4322 8.38382 4.37569 6.7251 2.7272 4.69708C1.88764 6.1424 1.6305 7.85338 2.00813 9.48164C2.38577 11.1099 3.36979 12.533 4.75984 13.4612C3.71498 13.4306 2.69286 13.1488 1.78 12.6395V12.7227C1.78041 14.2385 2.30513 15.7075 3.26516 16.8805C4.22519 18.0535 5.56141 18.8584 7.0472 19.1585C6.08064 19.4222 5.0665 19.4607 4.08272 19.2712C4.50242 20.5756 5.31924 21.7163 6.41899 22.5337C7.51873 23.3512 8.84644 23.8046 10.2165 23.8305C8.85525 24.9005 7.29642 25.6916 5.62917 26.1585C3.96191 26.6255 2.21895 26.7591 0.5 26.5518C3.50244 28.4785 6.9959 29.5005 10.5634 29.4958" fill="white"/>
</g>
<defs>
<clipPath id="clip0">
<rect width="32" height="32" fill="white" transform="translate(0.5 0.5)"/>
</clipPath>
</defs>
</svg>
