<svg width="207" height="114" viewBox="0 0 207 114" fill="none" xmlns="http://www.w3.org/2000/svg">
<rect width="207" height="114" rx="5" fill="#3F3F46"/>
<path d="M31.9382 19.2L26.7542 31.2L21.6422 19.2H17.4422L24.6902 36H28.5302L35.8022 19.2H31.9382ZM49.8445 19.2L44.6605 31.2L39.5485 19.2H35.3485L42.5965 36H46.4365L53.7085 19.2H49.8445ZM55.1111 36H58.9991V19.2H55.1111V36ZM70.2581 19.2H62.9861V36H66.8741V31.368H70.2581C74.7461 31.368 77.5541 29.04 77.5541 25.296C77.5541 21.528 74.7461 19.2 70.2581 19.2ZM70.0421 28.2H66.8741V22.368H70.0421C72.4181 22.368 73.6181 23.448 73.6181 25.296C73.6181 27.12 72.4181 28.2 70.0421 28.2Z" fill="white"/>
<path d="M20.5862 98.44V96.496H24.4862V94.984H20.5862V93.16H25.0022V91.6H18.6542V100H25.1582V98.44H20.5862ZM32.719 100L30.223 96.7L32.623 93.544H30.631L29.227 95.428L27.859 93.544H25.759L28.159 96.748L25.675 100H27.715L29.179 98.02L30.595 100H32.719ZM37.2877 98.368C37.0837 98.524 36.8077 98.608 36.5317 98.608C36.0277 98.608 35.7277 98.308 35.7277 97.756V95.128H37.3357V93.688H35.7277V92.116H33.8557V93.688H32.8597V95.128H33.8557V97.78C33.8557 99.316 34.7437 100.096 36.2677 100.096C36.8437 100.096 37.4077 99.964 37.7917 99.688L37.2877 98.368ZM40.6305 94.396V93.544H38.8425V100H40.7145V96.952C40.7145 95.716 41.3985 95.152 42.4305 95.152C42.5745 95.152 42.6945 95.164 42.8505 95.176V93.448C41.8545 93.448 41.0865 93.772 40.6305 94.396ZM46.5325 93.448C45.5005 93.448 44.4565 93.724 43.7485 94.228L44.4205 95.536C44.8885 95.164 45.5965 94.936 46.2805 94.936C47.2885 94.936 47.7685 95.404 47.7685 96.208H46.2805C44.3125 96.208 43.5085 97 43.5085 98.14C43.5085 99.256 44.4085 100.096 45.9205 100.096C46.8685 100.096 47.5405 99.784 47.8885 99.196V100H49.6405V96.316C49.6405 94.36 48.5005 93.448 46.5325 93.448ZM46.3885 98.836C45.7285 98.836 45.3325 98.524 45.3325 98.056C45.3325 97.624 45.6085 97.3 46.4845 97.3H47.7685V97.96C47.5525 98.548 47.0125 98.836 46.3885 98.836ZM54.8651 100H61.0211V98.416H56.8091V91.6H54.8651V100ZM66.5605 93.544V96.736C66.5605 97.924 65.9365 98.476 65.0725 98.476C64.2445 98.476 63.7645 97.996 63.7645 96.916V93.544H61.8925V97.192C61.8925 99.184 63.0325 100.096 64.6525 100.096C65.4445 100.096 66.1645 99.796 66.6565 99.232V100H68.4325V93.544H66.5605ZM76.3947 100L73.8987 96.7L76.2987 93.544H74.3067L72.9027 95.428L71.5347 93.544H69.4347L71.8347 96.748L69.3507 100H71.3907L72.8547 98.02L74.2707 100H76.3947ZM81.8183 93.544V96.736C81.8183 97.924 81.1943 98.476 80.3303 98.476C79.5023 98.476 79.0223 97.996 79.0223 96.916V93.544H77.1503V97.192C77.1503 99.184 78.2903 100.096 79.9103 100.096C80.7023 100.096 81.4223 99.796 81.9143 99.232V100H83.6903V93.544H81.8183ZM87.2125 94.396V93.544H85.4245V100H87.2965V96.952C87.2965 95.716 87.9805 95.152 89.0125 95.152C89.1565 95.152 89.2765 95.164 89.4325 95.176V93.448C88.4365 93.448 87.6685 93.772 87.2125 94.396ZM95.3763 93.544L93.5523 97.924L91.7403 93.544H89.8083L92.6043 100.048L92.5803 100.108C92.3283 100.684 92.0403 100.912 91.5243 100.912C91.1523 100.912 90.7563 100.756 90.4683 100.504L89.7843 101.836C90.2043 102.208 90.9243 102.424 91.5843 102.424C92.7483 102.424 93.6363 101.956 94.2603 100.396L97.1763 93.544H95.3763Z" fill="white"/>
<path d="M185.158 65.9995V62.9995C185.158 62.8669 185.105 62.7397 185.011 62.6459C184.918 62.5522 184.79 62.4995 184.658 62.4995H182.658C182.525 62.4995 182.398 62.5522 182.304 62.6459C182.211 62.7397 182.158 62.8669 182.158 62.9995V65.9995C182.158 66.1321 182.105 66.2593 182.011 66.3531C181.918 66.4468 181.79 66.4995 181.658 66.4995L178.658 66.4999C178.593 66.4999 178.528 66.487 178.467 66.4619C178.406 66.4368 178.351 66.3999 178.305 66.3535C178.258 66.3071 178.221 66.252 178.196 66.1913C178.171 66.1306 178.158 66.0656 178.158 65.9999V60.2212C178.158 60.1515 178.173 60.0826 178.201 60.0189C178.229 59.9552 178.27 59.8981 178.322 59.8512L183.321 55.3053C183.414 55.2216 183.533 55.1752 183.658 55.1752C183.782 55.1752 183.902 55.2216 183.994 55.3053L188.995 59.8512C189.046 59.8981 189.087 59.9552 189.115 60.0189C189.144 60.0826 189.158 60.1515 189.158 60.2212V65.9999C189.158 66.0656 189.145 66.1306 189.12 66.1913C189.095 66.252 189.058 66.3071 189.012 66.3535C188.965 66.3999 188.91 66.4368 188.85 66.4619C188.789 66.487 188.724 66.4999 188.658 66.4999L185.658 66.4995C185.525 66.4995 185.398 66.4468 185.304 66.3531C185.211 66.2593 185.158 66.1321 185.158 65.9995V65.9995Z" stroke="white" stroke-width="2" stroke-linecap="round" stroke-linejoin="round"/>
<path d="M23.8742 61.584C24.4982 61.2 24.8582 60.612 24.8582 59.856C24.8582 58.38 23.5382 57.456 21.6062 57.456C19.6982 57.456 18.3782 58.38 18.3782 59.856C18.3782 60.612 18.7262 61.2 19.3502 61.584C18.5462 61.992 18.0782 62.664 18.0782 63.564C18.0782 65.148 19.4822 66.144 21.6062 66.144C23.7422 66.144 25.1582 65.148 25.1582 63.564C25.1582 62.664 24.6902 61.992 23.8742 61.584ZM21.6062 58.884C22.3982 58.884 22.9262 59.28 22.9262 59.94C22.9262 60.576 22.4102 60.972 21.6062 60.972C20.8142 60.972 20.3102 60.576 20.3102 59.94C20.3102 59.28 20.8262 58.884 21.6062 58.884ZM21.6062 64.716C20.6462 64.716 20.0462 64.248 20.0462 63.504C20.0462 62.76 20.6462 62.304 21.6062 62.304C22.5782 62.304 23.1902 62.76 23.1902 63.504C23.1902 64.248 22.5782 64.716 21.6062 64.716ZM29.6481 66.144C31.7241 66.144 33.2481 64.572 33.2481 61.8C33.2481 59.028 31.7241 57.456 29.6481 57.456C27.5841 57.456 26.0481 59.028 26.0481 61.8C26.0481 64.572 27.5841 66.144 29.6481 66.144ZM29.6481 64.5C28.6881 64.5 28.0161 63.708 28.0161 61.8C28.0161 59.892 28.6881 59.1 29.6481 59.1C30.6201 59.1 31.2921 59.892 31.2921 61.8C31.2921 63.708 30.6201 64.5 29.6481 64.5ZM36.1366 62.136C37.3606 62.136 38.2126 61.248 38.2126 59.82C38.2126 58.392 37.3606 57.504 36.1366 57.504C34.9126 57.504 34.0486 58.404 34.0486 59.82C34.0486 61.236 34.9126 62.136 36.1366 62.136ZM35.4046 66H36.8326L42.5686 57.6H41.1406L35.4046 66ZM36.1366 61.152C35.6206 61.152 35.2606 60.708 35.2606 59.82C35.2606 58.932 35.6206 58.488 36.1366 58.488C36.6646 58.488 37.0126 58.92 37.0126 59.82C37.0126 60.72 36.6646 61.152 36.1366 61.152ZM41.8366 66.096C43.0606 66.096 43.9246 65.196 43.9246 63.78C43.9246 62.364 43.0606 61.464 41.8366 61.464C40.6246 61.464 39.7606 62.364 39.7606 63.78C39.7606 65.196 40.6246 66.096 41.8366 66.096ZM41.8366 65.112C41.3206 65.112 40.9606 64.68 40.9606 63.78C40.9606 62.88 41.3206 62.448 41.8366 62.448C42.3646 62.448 42.7126 62.892 42.7126 63.78C42.7126 64.668 42.3646 65.112 41.8366 65.112Z" fill="white"/>
<rect x="17.6582" y="71" width="174" height="8" rx="2" fill="#52525B"/>
<path d="M17.6582 73C17.6582 71.8954 18.5536 71 19.6582 71H156.858V79H19.6582C18.5536 79 17.6582 78.1046 17.6582 77V73Z" fill="#F97316"/>
</svg>
