<svg width="29" height="28" viewBox="0 0 29 28" fill="none" xmlns="http://www.w3.org/2000/svg">
<path d="M5.03271 7.11476V20.8852C5.03271 21.3418 5.21407 21.7796 5.53688 22.1024C5.85968 22.4252 6.29751 22.6066 6.75403 22.6066H23.9671C24.1954 22.6066 24.4143 22.5159 24.5757 22.3545C24.7371 22.1931 24.8278 21.9742 24.8278 21.7459V9.69672C24.8278 9.46846 24.7371 9.24955 24.5757 9.08815C24.4143 8.92674 24.1954 8.83607 23.9671 8.83607H6.75403C6.29751 8.83607 5.85968 8.65472 5.53688 8.33191C5.21407 8.0091 5.03271 7.57128 5.03271 7.11476ZM5.03271 7.11476C5.03271 6.65824 5.21407 6.22041 5.53688 5.89761C5.85968 5.5748 6.29751 5.39345 6.75403 5.39345H21.3852" stroke="#F97316" stroke-width="2" stroke-linecap="round" stroke-linejoin="round"/>
<path d="M20.0942 17.0123C20.8072 17.0123 21.3852 16.4343 21.3852 15.7213C21.3852 15.0083 20.8072 14.4303 20.0942 14.4303C19.3812 14.4303 18.8032 15.0083 18.8032 15.7213C18.8032 16.4343 19.3812 17.0123 20.0942 17.0123Z" fill="#F97316"/>
</svg>
