<svg width="32" height="32" viewBox="0 0 32 32" fill="none" xmlns="http://www.w3.org/2000/svg">
<g clip-path="url(#clip0)">
<path d="M27.36 4.59867C24.32 1.66 20.32 0 16.06 0C3.83333 0 -3.844 13.2467 2.26133 23.784L0 32L8.44667 29.7973C12.1267 31.7853 15.1413 31.6093 16.068 31.7267C30.2453 31.7267 37.3027 14.5747 27.34 4.65067L27.36 4.59867Z" fill="#ECEFF1"/>
<path d="M16.0892 29.0013L16.0812 29H16.0598C11.8172 29 9.10651 26.9907 8.83984 26.8747L3.83984 28.1747L5.17984 23.3147L4.86118 22.8147C3.54118 20.7133 2.83984 18.2933 2.83984 15.8013C2.83984 4.07733 17.1665 -1.78534 25.4572 6.50133C33.7278 14.7013 27.9212 29.0013 16.0892 29.0013Z" fill="#4CAF50"/>
<path d="M23.3429 19.076L23.3309 19.176C22.9295 18.976 20.9749 18.02 20.6109 17.888C19.7935 17.5853 20.0242 17.84 18.4549 19.6373C18.2215 19.8973 17.9895 19.9173 17.5935 19.7373C17.1935 19.5373 15.9095 19.1173 14.3895 17.7573C13.2055 16.6973 12.4109 15.3973 12.1762 14.9973C11.7855 14.3227 12.6029 14.2267 13.3469 12.8187C13.4802 12.5387 13.4122 12.3187 13.3135 12.12C13.2135 11.92 12.4175 9.96001 12.0842 9.17867C11.7642 8.40001 11.4349 8.49867 11.1882 8.49867C10.4202 8.43201 9.85885 8.44267 9.36418 8.95734C7.21218 11.3227 7.75485 13.7627 9.59618 16.3573C13.2149 21.0933 15.1429 21.9653 18.6682 23.176C19.6202 23.4787 20.4882 23.436 21.1749 23.3373C21.9402 23.216 23.5309 22.376 23.8629 21.436C24.2029 20.496 24.2029 19.716 24.1029 19.536C24.0042 19.356 23.7429 19.256 23.3429 19.076Z" fill="#FAFAFA"/>
</g>
<defs>
<clipPath id="clip0">
<rect width="32" height="32" fill="white"/>
</clipPath>
</defs>
</svg>
